<svg width="34" height="35" viewBox="0 0 34 35" fill="none" xmlns="http://www.w3.org/2000/svg">
<path d="M13.6663 6.33333H20.333C20.333 5.44928 19.9818 4.60143 19.3567 3.97631C18.7316 3.35119 17.8837 3 16.9997 3C16.1156 3 15.2678 3.35119 14.6427 3.97631C14.0175 4.60143 13.6663 5.44928 13.6663 6.33333ZM11.1663 6.33333C11.1663 5.56729 11.3172 4.80875 11.6104 4.10101C11.9035 3.39328 12.3332 2.75022 12.8749 2.20854C13.4166 1.66687 14.0596 1.23719 14.7674 0.944036C15.4751 0.650884 16.2336 0.5 16.9997 0.5C17.7657 0.5 18.5243 0.650884 19.232 0.944036C19.9397 1.23719 20.5828 1.66687 21.1245 2.20854C21.6661 2.75022 22.0958 3.39328 22.389 4.10101C22.6821 4.80875 22.833 5.56729 22.833 6.33333H32.4163C32.7479 6.33333 33.0658 6.46503 33.3002 6.69945C33.5346 6.93387 33.6663 7.25181 33.6663 7.58333C33.6663 7.91485 33.5346 8.2328 33.3002 8.46722C33.0658 8.70164 32.7479 8.83333 32.4163 8.83333H30.2163L28.2663 29.0183C28.1168 30.565 27.3964 32.0004 26.2458 33.0447C25.0952 34.089 23.5969 34.6673 22.043 34.6667H11.9563C10.4028 34.6668 8.90484 34.0884 7.75459 33.0442C6.60434 31.9999 5.88423 30.5647 5.73467 29.0183L3.78301 8.83333H1.58301C1.25149 8.83333 0.933545 8.70164 0.699124 8.46722C0.464704 8.2328 0.333008 7.91485 0.333008 7.58333C0.333008 7.25181 0.464704 6.93387 0.699124 6.69945C0.933545 6.46503 1.25149 6.33333 1.58301 6.33333H11.1663ZM14.4997 14.25C14.4997 13.9185 14.368 13.6005 14.1336 13.3661C13.8991 13.1317 13.5812 13 13.2497 13C12.9182 13 12.6002 13.1317 12.3658 13.3661C12.1314 13.6005 11.9997 13.9185 11.9997 14.25V26.75C11.9997 27.0815 12.1314 27.3995 12.3658 27.6339C12.6002 27.8683 12.9182 28 13.2497 28C13.5812 28 13.8991 27.8683 14.1336 27.6339C14.368 27.3995 14.4997 27.0815 14.4997 26.75V14.25ZM20.7497 13C21.0812 13 21.3991 13.1317 21.6336 13.3661C21.868 13.6005 21.9997 13.9185 21.9997 14.25V26.75C21.9997 27.0815 21.868 27.3995 21.6336 27.6339C21.3991 27.8683 21.0812 28 20.7497 28C20.4182 28 20.1002 27.8683 19.8658 27.6339C19.6314 27.3995 19.4997 27.0815 19.4997 26.75V14.25C19.4997 13.9185 19.6314 13.6005 19.8658 13.3661C20.1002 13.1317 20.4182 13 20.7497 13ZM8.22301 28.7783C8.3129 29.7061 8.74508 30.5671 9.43529 31.1935C10.1255 31.8199 11.0243 32.1669 11.9563 32.1667H22.043C22.9751 32.1669 23.8739 31.8199 24.5641 31.1935C25.2543 30.5671 25.6864 29.7061 25.7763 28.7783L27.7063 8.83333H6.29301L8.22301 28.7783Z" fill="#CE2A29"/>
</svg>
