<svg width="18" height="18" viewBox="0 0 18 18" fill="none" xmlns="http://www.w3.org/2000/svg">
<path d="M4.11432 14.4374L4.11432 14.4373L3.14932 4.46483L3.09627 3.91667H3.64699H14.3537H14.9044L14.8513 4.46483L13.8863 14.4373L13.8863 14.4374C13.8294 15.025 13.5557 15.5703 13.1186 15.967C12.6814 16.3637 12.1123 16.5834 11.522 16.5833L4.11432 14.4374ZM4.11432 14.4374C4.17126 15.025 4.44497 15.5703 4.8821 15.967M4.11432 14.4374L4.8821 15.967M4.8821 15.967C5.3192 16.3637 5.88837 16.5834 6.47866 16.5833M4.8821 15.967L6.47866 16.5833M6.47866 16.5833C6.4787 16.5833 6.47873 16.5833 6.47877 16.5833M6.47866 16.5833H6.47877M6.47877 16.5833H11.5219H6.47877ZM6.83366 3.16667V3.66667H7.33366H10.667H11.167V3.16667C11.167 2.59203 10.9387 2.04093 10.5324 1.6346C10.1261 1.22827 9.57496 1 9.00033 1C8.42569 1 7.87459 1.22827 7.46826 1.6346C7.06193 2.04093 6.83366 2.59203 6.83366 3.16667ZM6.08366 3.66667H6.58366V3.16667C6.58366 2.84931 6.64617 2.53505 6.76762 2.24185C6.88907 1.94865 7.06708 1.68223 7.29148 1.45783C7.51589 1.23342 7.7823 1.05541 8.07551 0.933958C8.36871 0.812509 8.68296 0.75 9.00033 0.75C9.31769 0.75 9.63194 0.812509 9.92514 0.933958C10.2183 1.05541 10.4848 1.23342 10.7092 1.45782L11.056 1.11094L10.7092 1.45783C10.9336 1.68223 11.1116 1.94865 11.233 2.24185C11.3545 2.53505 11.417 2.84931 11.417 3.16667V3.66667H11.917H16.7087C16.7418 3.66667 16.7736 3.67984 16.797 3.70328C16.8205 3.72672 16.8337 3.75851 16.8337 3.79167C16.8337 3.82482 16.8205 3.85661 16.797 3.88006C16.7736 3.9035 16.7418 3.91667 16.7087 3.91667H15.6087H15.1546L15.111 4.36859L14.136 14.461C14.0732 15.1106 13.7706 15.7135 13.2874 16.1521C12.8041 16.5907 12.1748 16.8336 11.5222 16.8333H11.522H6.47866H6.4786C5.82611 16.8334 5.19697 16.5905 4.71387 16.1519C4.23076 15.7133 3.92832 15.1105 3.8655 14.461C3.8655 14.461 3.8655 14.461 3.8655 14.461L2.88967 4.36855L2.84598 3.91667H2.39199H1.29199C1.25884 3.91667 1.22705 3.9035 1.2036 3.88006C1.18016 3.85661 1.16699 3.82482 1.16699 3.79167C1.16699 3.75851 1.18016 3.72672 1.2036 3.70328C1.22705 3.67984 1.25884 3.66667 1.29199 3.66667H6.08366ZM7.21371 7.03661C7.23716 7.06005 7.25033 7.09185 7.25033 7.125V13.375C7.25033 13.4082 7.23716 13.4399 7.21371 13.4634C7.19027 13.4868 7.15848 13.5 7.12533 13.5C7.09217 13.5 7.06038 13.4868 7.03694 13.4634C7.0135 13.4399 7.00033 13.4082 7.00033 13.375V7.125C7.00033 7.09185 7.01349 7.06006 7.03694 7.03661C7.06038 7.01317 7.09218 7 7.12533 7C7.15848 7 7.19027 7.01317 7.21371 7.03661ZM10.8753 7C10.9085 7 10.9403 7.01317 10.9637 7.03661C10.9872 7.06006 11.0003 7.09185 11.0003 7.125V13.375C11.0003 13.4082 10.9872 13.4399 10.9637 13.4634C10.9403 13.4868 10.9085 13.5 10.8753 13.5C10.8422 13.5 10.8104 13.4868 10.7869 13.4634C10.7635 13.4399 10.7503 13.4082 10.7503 13.375V7.125C10.7503 7.09185 10.7635 7.06006 10.7869 7.03661C10.8104 7.01317 10.8422 7 10.8753 7Z" fill="#131313" stroke="#1A1A1A"/>
</svg>
