<svg width="20" height="20" viewBox="0 0 20 20" fill="none" xmlns="http://www.w3.org/2000/svg">
<path d="M17.1061 6.40325L17.1059 6.40341L16.7161 6.79359L13.2065 3.28327L13.5957 2.89362C13.5958 2.89356 13.5958 2.89351 13.5959 2.89345C14.0613 2.42806 14.6925 2.16657 15.3506 2.1665C16.0089 2.16644 16.6402 2.42786 17.1057 2.89327C17.5712 3.35868 17.8328 3.98994 17.8328 4.64819C17.8329 5.30644 17.5715 5.93775 17.1061 6.40325ZM3.63635 12.8538L3.63651 12.8537L11.6163 4.87469L15.1259 8.38428L7.14774 16.3632L7.14763 16.3633C6.87456 16.6366 6.53089 16.8286 6.15502 16.9178L6.15462 16.9179L2.32045 17.8312L2.32007 17.8313C2.2993 17.8363 2.27761 17.8358 2.25707 17.83C2.23651 17.8242 2.21779 17.8133 2.20268 17.7982L1.84932 18.1519L2.20267 17.7982C2.18757 17.7831 2.17658 17.7644 2.17075 17.7438C2.16493 17.7233 2.16447 17.7016 2.16941 17.6808L3.0819 13.8458L3.08192 13.8458C3.17124 13.4701 3.36319 13.1267 3.63635 12.8538Z" fill="#1A1A1A" stroke="#F7F7F7"/>
</svg>
