<svg width="20" height="20" viewBox="0 0 20 20" fill="none" xmlns="http://www.w3.org/2000/svg">
<path d="M13.8914 1.04783C14.5624 0.376695 15.4725 -0.000394496 16.4215 -0.000488264C17.3705 -0.000582032 18.2807 0.376328 18.9519 1.04733C19.623 1.71832 20.0001 2.62844 20.0002 3.57747C20.0003 4.5265 19.6234 5.4367 18.9524 6.10783L18.0604 7.00083L13.0004 1.93983L13.8914 1.04783ZM11.9404 3.00083L1.94036 12.9998C1.53389 13.4059 1.24827 13.9169 1.11536 14.4758L0.0203556 19.0778C-0.00929281 19.2025 -0.00651306 19.3326 0.0284298 19.4559C0.0633727 19.5792 0.129314 19.6914 0.219964 19.782C0.310614 19.8725 0.42295 19.9384 0.546259 19.9732C0.669568 20.008 0.799739 20.0106 0.924356 19.9808L5.52536 18.8848C6.08466 18.7521 6.59604 18.4664 7.00236 18.0598L17.0004 8.06083L11.9404 3.00083Z" fill="#880B0B"/>
</svg>
