<svg width="304" height="213" viewBox="0 0 304 213" fill="none" xmlns="http://www.w3.org/2000/svg">
<path d="M25.5338 107.277L1 155.433V213H303V1C251.012 30.8903 259.891 80.5969 251.012 120.008C242.133 159.419 227.841 150.821 221.805 141.595C214.211 119.639 196.336 83.4752 166.896 83.4752C137.455 83.4752 128.173 100.081 126.59 113.366C122.501 147.684 102.407 140.045 82.7795 107.277C63.1524 74.5081 32.5435 93.9922 25.5338 107.277Z" fill="url(#paint0_linear_56_14151)"/>
<path d="M1 156L25.5339 107.667C32.5435 94.3333 63.1524 74.7778 82.7795 107.667C102.407 140.556 122.501 148.222 126.59 113.778C128.173 100.444 137.455 83.7778 166.896 83.7778C196.336 83.7778 214.211 120.074 221.805 142.111C227.841 151.37 242.133 160 251.012 120.444C259.891 80.8889 251.012 31 303 1" stroke="#9B0C0C" stroke-width="2"/>
<defs>
<linearGradient id="paint0_linear_56_14151" x1="156.965" y1="-3.98172" x2="152.244" y2="201.942" gradientUnits="userSpaceOnUse">
<stop stop-color="#AC1D1B"/>
<stop offset="1" stop-color="white" stop-opacity="0"/>
</linearGradient>
</defs>
</svg>
