<svg width="25" height="24" viewBox="0 0 25 24" fill="none" xmlns="http://www.w3.org/2000/svg">
<path d="M6.50021 3C6.25528 3.00003 6.01888 3.08996 5.83584 3.25272C5.65281 3.41547 5.53587 3.63975 5.50721 3.883L5.50021 4V20C5.5005 20.2549 5.59809 20.5 5.77306 20.6854C5.94803 20.8707 6.18717 20.9822 6.44161 20.9972C6.69605 21.0121 6.94659 20.9293 7.14205 20.7657C7.3375 20.6021 7.46311 20.3701 7.49321 20.117L7.50021 20V4C7.50021 3.73478 7.39486 3.48043 7.20732 3.29289C7.01978 3.10536 6.76543 3 6.50021 3ZM19.2072 3.293C19.035 3.12082 18.8059 3.01739 18.5629 3.00211C18.3199 2.98683 18.0796 3.06075 17.8872 3.21L17.7932 3.293L9.79321 11.293C9.62104 11.4652 9.51761 11.6943 9.50233 11.9373C9.48704 12.1803 9.56096 12.4206 9.71021 12.613L9.79321 12.707L17.7932 20.707C17.9732 20.8864 18.2146 20.9905 18.4686 20.9982C18.7225 21.006 18.9699 20.9168 19.1605 20.7488C19.3511 20.5807 19.4705 20.3465 19.4946 20.0935C19.5187 19.8406 19.4456 19.588 19.2902 19.387L19.2072 19.293L11.9142 12L19.2072 4.707C19.3947 4.51947 19.5 4.26516 19.5 4C19.5 3.73484 19.3947 3.48053 19.2072 3.293Z" fill="#880B0B"/>
</svg>
