<svg width="25" height="24" viewBox="0 0 25 24" fill="none" xmlns="http://www.w3.org/2000/svg">
<path d="M7.46896 11.4694L14.969 3.96944C15.0386 3.89976 15.1214 3.84449 15.2124 3.80678C15.3035 3.76906 15.401 3.74965 15.4996 3.74965C15.5981 3.74965 15.6957 3.76906 15.7868 3.80678C15.8778 3.84449 15.9605 3.89976 16.0302 3.96944C16.0999 4.03913 16.1552 4.12185 16.1929 4.2129C16.2306 4.30394 16.25 4.40152 16.25 4.50007C16.25 4.59862 16.2306 4.6962 16.1929 4.78724C16.1552 4.87829 16.0999 4.96101 16.0302 5.0307L9.0599 12.0001L16.0302 18.9694C16.1709 19.1102 16.25 19.301 16.25 19.5001C16.25 19.6991 16.1709 19.89 16.0302 20.0307C15.8895 20.1714 15.6986 20.2505 15.4996 20.2505C15.3006 20.2505 15.1097 20.1714 14.969 20.0307L7.46896 12.5307C7.39923 12.461 7.34391 12.3783 7.30616 12.2873C7.26842 12.1962 7.24899 12.0986 7.24899 12.0001C7.24899 11.9015 7.26842 11.8039 7.30616 11.7129C7.34391 11.6218 7.39923 11.5391 7.46896 11.4694Z" fill="#880B0B"/>
</svg>
