<svg width="328" height="679" viewBox="0 0 328 679" fill="none" xmlns="http://www.w3.org/2000/svg">
<path opacity="0.4" d="M177.44 541.36C196 529.2 206.88 515.12 206.88 499.76C206.88 479.92 190.24 465.2 151.2 465.2C105.12 465.2 80.16 483.76 80.16 514.48C80.16 552.88 123.04 575.92 220.96 608.56L183.2 678.32C53.28 641.2 -8.8 588.72 -8.8 515.76C-8.8 479.92 4 453.04 26.4 433.84C2.08 412.72 -9.44 389.68 -9.44 364.72C-9.44 312.88 30.24 284.72 101.92 284.72H180.64V247.6H-44V175.92H327.84V247.6H268.96V353.2H115.36C89.76 353.2 78.24 362.16 78.24 378.16C78.24 387.12 82.72 395.44 91.68 403.12C110.88 398.64 132.64 396.08 155.68 396.08C254.24 396.08 295.2 442.8 295.2 496.56C295.2 529.84 281.76 557.36 250.4 583.6L177.44 541.36ZM184.07 180.4C154.63 91.44 141.19 73.52 104.71 73.52C89.35 73.52 72.07 77.36 57.35 83.12L34.95 13.36C57.99 4.39997 83.59 0.559982 108.55 0.559982C187.27 0.559982 216.71 37.68 260.87 180.4H184.07Z" fill="#610808"/>
</svg>
