<svg width="160" height="160" viewBox="0 0 160 160" fill="none" xmlns="http://www.w3.org/2000/svg">
<rect x="0.5" y="0.5" width="159" height="159" rx="3.5" stroke="#E8E8E8"/>
<path fill-rule="evenodd" clip-rule="evenodd" d="M53.3333 46.6667C53.3333 39.5942 56.1428 32.8115 61.1438 27.8105C66.1448 22.8095 72.9276 20 80 20C87.0724 20 93.8552 22.8095 98.8562 27.8105C103.857 32.8115 106.667 39.5942 106.667 46.6667C106.667 53.7391 103.857 60.5219 98.8562 65.5228C93.8552 70.5238 87.0724 73.3333 80 73.3333C72.9276 73.3333 66.1448 70.5238 61.1438 65.5228C56.1428 60.5219 53.3333 53.7391 53.3333 46.6667ZM53.3333 86.6667C44.4928 86.6667 36.0143 90.1786 29.7631 96.4298C23.5119 102.681 20 111.159 20 120C20 125.304 22.1071 130.391 25.8579 134.142C29.6086 137.893 34.6957 140 40 140H120C125.304 140 130.391 137.893 134.142 134.142C137.893 130.391 140 125.304 140 120C140 111.159 136.488 102.681 130.237 96.4298C123.986 90.1786 115.507 86.6667 106.667 86.6667H53.3333Z" fill="#1A1A1A"/>
</svg>
