<svg width="25" height="24" viewBox="0 0 25 24" fill="none" xmlns="http://www.w3.org/2000/svg">
<path d="M17.531 12.5306L10.031 20.0306C9.96136 20.1002 9.87863 20.1555 9.78759 20.1932C9.69654 20.2309 9.59896 20.2503 9.50042 20.2503C9.40187 20.2503 9.30429 20.2309 9.21324 20.1932C9.1222 20.1555 9.03947 20.1002 8.96979 20.0306C8.90011 19.9609 8.84483 19.8781 8.80712 19.7871C8.76941 19.6961 8.75 19.5985 8.75 19.4999C8.75 19.4014 8.76941 19.3038 8.80712 19.2128C8.84483 19.1217 8.90011 19.039 8.96979 18.9693L15.9401 11.9999L8.96979 5.03055C8.82906 4.88982 8.75 4.69895 8.75 4.49993C8.75 4.30091 8.82906 4.11003 8.96979 3.9693C9.11052 3.82857 9.30139 3.74951 9.50042 3.74951C9.69944 3.74951 9.89031 3.82857 10.031 3.9693L17.531 11.4693C17.6008 11.539 17.6561 11.6217 17.6938 11.7127C17.7316 11.8038 17.751 11.9014 17.751 11.9999C17.751 12.0985 17.7316 12.1961 17.6938 12.2871C17.6561 12.3782 17.6008 12.4609 17.531 12.5306Z" fill="#880B0B"/>
</svg>
