<svg width="25" height="24" viewBox="0 0 25 24" fill="none" xmlns="http://www.w3.org/2000/svg">
<path d="M18.4998 3C18.7447 3.00003 18.9811 3.08996 19.1642 3.25272C19.3472 3.41547 19.4641 3.63975 19.4928 3.883L19.4998 4V20C19.4995 20.2549 19.4019 20.5 19.2269 20.6854C19.052 20.8707 18.8128 20.9822 18.5584 20.9972C18.304 21.0121 18.0534 20.9293 17.858 20.7657C17.6625 20.6021 17.5369 20.3701 17.5068 20.117L17.4998 20V4C17.4998 3.73478 17.6051 3.48043 17.7927 3.29289C17.9802 3.10536 18.2346 3 18.4998 3ZM5.79279 3.293C5.96498 3.12082 6.19408 3.01739 6.43711 3.00211C6.68013 2.98683 6.92038 3.06075 7.11279 3.21L7.20679 3.293L15.2068 11.293C15.379 11.4652 15.4824 11.6943 15.4977 11.9373C15.513 12.1803 15.439 12.4206 15.2898 12.613L15.2068 12.707L7.20679 20.707C7.02683 20.8864 6.78535 20.9905 6.5314 20.9982C6.27745 21.006 6.03007 20.9168 5.83951 20.7488C5.64894 20.5807 5.52948 20.3465 5.50539 20.0935C5.48129 19.8406 5.55437 19.588 5.70979 19.387L5.79279 19.293L13.0858 12L5.79279 4.707C5.60532 4.51947 5.5 4.26516 5.5 4C5.5 3.73484 5.60532 3.48053 5.79279 3.293Z" fill="#880B0B"/>
</svg>
