<svg width="64" height="68" viewBox="0 0 64 68" fill="none" xmlns="http://www.w3.org/2000/svg">
<mask id="mask0_550_1469" style="mask-type:luminance" maskUnits="userSpaceOnUse" x="0" y="1" width="64" height="66">
<path d="M27.2848 4.10584C30.0939 2.05661 33.9051 2.05661 36.7143 4.10584L38.6411 5.51143C40.0143 6.51316 41.6708 7.05148 43.3706 7.04834L45.757 7.04394C49.2342 7.03752 52.3173 9.27786 53.3852 12.5869L54.1175 14.8563C54.6397 16.4743 55.6637 17.8838 57.0411 18.8805L58.9734 20.2788C61.7903 22.3171 62.9681 25.9417 61.8873 29.2465L61.146 31.5132C60.6177 33.1289 60.6177 34.8708 61.146 36.4864L61.8873 38.7532C62.9681 42.058 61.7903 45.6826 58.9734 47.7209L57.0411 49.1192C55.6637 50.1159 54.6397 51.5254 54.1175 53.1434L53.3852 55.4127C52.3173 58.7218 49.2342 60.9622 45.7571 60.9557L43.3706 60.9513C41.6708 60.9482 40.0143 61.4865 38.6411 62.4882L36.7143 63.8938C33.9051 65.9431 30.0939 65.9431 27.2848 63.8938L25.358 62.4883C23.9848 61.4865 22.3282 60.9482 20.6285 60.9513L18.242 60.9557C14.7649 60.9622 11.6818 58.7218 10.6139 55.4127L9.88149 53.1434C9.35934 51.5254 8.33533 50.1159 6.95799 49.1192L5.02562 47.7209C2.20869 45.6826 1.03097 42.058 2.11173 38.7532L2.85301 36.4864C3.38136 34.8708 3.38136 33.1289 2.85301 31.5132L2.11174 29.2465C1.03098 25.9417 2.20869 22.3171 5.02562 20.2788L6.95799 18.8805C8.33533 17.8838 9.35934 16.4743 9.88149 14.8563L10.6139 12.5869C11.6818 9.27786 14.7649 7.03752 18.242 7.04394L20.6285 7.04834C22.3282 7.05148 23.9848 6.51316 25.358 5.51143L27.2848 4.10584Z" fill="#FAFAFA" stroke="white" stroke-width="2" stroke-linecap="round" stroke-linejoin="round"/>
<path d="M20.333 33.9998L28.6663 42.3332L45.333 25.6665" fill="#FAFAFA"/>
<path d="M20.333 33.9998L28.6663 42.3332L45.333 25.6665" stroke="black" stroke-width="2" stroke-linecap="round" stroke-linejoin="round"/>
</mask>
<g mask="url(#mask0_550_1469)">
<path d="M-8 -6H72V74H-8V-6Z" fill="#42AC1B"/>
</g>
</svg>
